<?xml version="1.0" encoding="utf-8" standalone="no"?>
<!DOCTYPE svg PUBLIC "-//W3C//DTD SVG 1.1//EN"
  "http://www.w3.org/Graphics/SVG/1.1/DTD/svg11.dtd">
<svg xmlns:xlink="http://www.w3.org/1999/xlink" width="181.644094pt" height="214.299213pt" viewBox="0 0 181.644094 214.299213" xmlns="http://www.w3.org/2000/svg" version="1.1">
 <metadata>
  <rdf:RDF xmlns:dc="http://purl.org/dc/elements/1.1/" xmlns:cc="http://creativecommons.org/ns#" xmlns:rdf="http://www.w3.org/1999/02/22-rdf-syntax-ns#">
   <cc:Work>
    <dc:type rdf:resource="http://purl.org/dc/dcmitype/StillImage"/>
    <dc:date>2023-06-09T10:30:36.995291</dc:date>
    <dc:format>image/svg+xml</dc:format>
    <dc:creator>
     <cc:Agent>
      <dc:title>Matplotlib v3.5.2, https://matplotlib.org/</dc:title>
     </cc:Agent>
    </dc:creator>
   </cc:Work>
  </rdf:RDF>
 </metadata>
 <defs>
  <style type="text/css">*{stroke-linejoin: round; stroke-linecap: butt}</style>
 </defs>
 <g id="figure_1">
  <g id="patch_1">
   <path d="M 0 214.299213 
L 181.644094 214.299213 
L 181.644094 0 
L 0 0 
z
" style="fill: #ffffff"/>
  </g>
  <g id="axes_1">
   <g id="patch_2">
    <path d="M 41.22 190.759213 
L 174.084094 190.759213 
L 174.084094 10.08 
L 41.22 10.08 
z
" style="fill: #ffffff"/>
   </g>
   <g id="matplotlib.axis_1">
    <g id="xtick_1">
     <g id="text_1">
      <text style="fill: #262626; font: 7px 'sans-serif'; text-anchor: middle" x="74.436024" y="205.269681" transform="rotate(-0, 74.436024, 205.269681)">In-hospital mortality</text>
     </g>
    </g>
    <g id="xtick_2">
     <g id="text_2">
      <text style="fill: #262626; font: 7px 'sans-serif'; text-anchor: middle" x="140.868071" y="205.269681" transform="rotate(-0, 140.868071, 205.269681)">Readmission</text>
     </g>
    </g>
   </g>
   <g id="matplotlib.axis_2">
    <g id="ytick_1">
     <g id="text_3">
      <text style="fill: #262626; font: 7px 'sans-serif'; text-anchor: end" x="31.72" y="193.264447" transform="rotate(-0, 31.72, 193.264447)">0.55</text>
     </g>
    </g>
    <g id="ytick_2">
     <g id="text_4">
      <text style="fill: #262626; font: 7px 'sans-serif'; text-anchor: end" x="31.72" y="173.188979" transform="rotate(-0, 31.72, 173.188979)">0.60</text>
     </g>
    </g>
    <g id="ytick_3">
     <g id="text_5">
      <text style="fill: #262626; font: 7px 'sans-serif'; text-anchor: end" x="31.72" y="153.113511" transform="rotate(-0, 31.72, 153.113511)">0.65</text>
     </g>
    </g>
    <g id="ytick_4">
     <g id="text_6">
      <text style="fill: #262626; font: 7px 'sans-serif'; text-anchor: end" x="31.72" y="133.038043" transform="rotate(-0, 31.72, 133.038043)">0.70</text>
     </g>
    </g>
    <g id="ytick_5">
     <g id="text_7">
      <text style="fill: #262626; font: 7px 'sans-serif'; text-anchor: end" x="31.72" y="112.962575" transform="rotate(-0, 31.72, 112.962575)">0.75</text>
     </g>
    </g>
    <g id="ytick_6">
     <g id="text_8">
      <text style="fill: #262626; font: 7px 'sans-serif'; text-anchor: end" x="31.72" y="92.887107" transform="rotate(-0, 31.72, 92.887107)">0.80</text>
     </g>
    </g>
    <g id="ytick_7">
     <g id="text_9">
      <text style="fill: #262626; font: 7px 'sans-serif'; text-anchor: end" x="31.72" y="72.811639" transform="rotate(-0, 31.72, 72.811639)">0.85</text>
     </g>
    </g>
    <g id="ytick_8">
     <g id="text_10">
      <text style="fill: #262626; font: 7px 'sans-serif'; text-anchor: end" x="31.72" y="52.736171" transform="rotate(-0, 31.72, 52.736171)">0.90</text>
     </g>
    </g>
    <g id="ytick_9">
     <g id="text_11">
      <text style="fill: #262626; font: 7px 'sans-serif'; text-anchor: end" x="31.72" y="32.660702" transform="rotate(-0, 31.72, 32.660702)">0.95</text>
     </g>
    </g>
    <g id="ytick_10">
     <g id="text_12">
      <text style="fill: #262626; font: 7px 'sans-serif'; text-anchor: end" x="31.72" y="12.585234" transform="rotate(-0, 31.72, 12.585234)">1.00</text>
     </g>
    </g>
    <g id="text_13">
     <text style="fill: #262626; font: 7px 'sans-serif'; text-anchor: middle" x="12.624063" y="100.419606" transform="rotate(-90, 12.624063, 100.419606)">Temporal (OVR) AUC</text>
    </g>
   </g>
   <g id="patch_3">
    <path d="M 47.863205 411.589361 
L 74.436024 411.589361 
L 74.436024 30.427367 
L 47.863205 30.427367 
z
" clip-path="url(#pd96d47c8b0)" style="fill: #72b6a1; opacity: 0.5; stroke: #000000; stroke-linejoin: miter"/>
   </g>
   <g id="patch_4">
    <path d="M 114.295252 411.589361 
L 140.868071 411.589361 
L 140.868071 90.911377 
L 114.295252 90.911377 
z
" clip-path="url(#pd96d47c8b0)" style="fill: #72b6a1; opacity: 0.5; stroke: #000000; stroke-linejoin: miter"/>
   </g>
   <g id="patch_5">
    <path d="M 74.436024 411.589361 
L 101.008843 411.589361 
L 101.008843 60.244871 
L 74.436024 60.244871 
z
" clip-path="url(#pd96d47c8b0)" style="fill: #b3b3b3; opacity: 0.5; stroke: #000000; stroke-linejoin: miter"/>
   </g>
   <g id="patch_6">
    <path d="M 140.868071 411.589361 
L 167.44089 411.589361 
L 167.44089 112.415639 
L 140.868071 112.415639 
z
" clip-path="url(#pd96d47c8b0)" style="fill: #b3b3b3; opacity: 0.5; stroke: #000000; stroke-linejoin: miter"/>
   </g>
   <g id="PathCollection_1"/>
   <g id="PathCollection_2"/>
   <g id="line2d_1">
    <path d="M 61.149614 31.146805 
L 61.149614 29.707929 
" clip-path="url(#pd96d47c8b0)" style="fill: none; stroke: #000000; stroke-linecap: round"/>
   </g>
   <g id="line2d_2">
    <path d="M 57.828012 31.146805 
L 64.471217 31.146805 
" clip-path="url(#pd96d47c8b0)" style="fill: none; stroke: #000000; stroke-linecap: round"/>
   </g>
   <g id="line2d_3">
    <path d="M 57.828012 29.707929 
L 64.471217 29.707929 
" clip-path="url(#pd96d47c8b0)" style="fill: none; stroke: #000000; stroke-linecap: round"/>
   </g>
   <g id="line2d_4">
    <path d="M 127.581661 91.585535 
L 127.581661 90.237218 
" clip-path="url(#pd96d47c8b0)" style="fill: none; stroke: #000000; stroke-linecap: round"/>
   </g>
   <g id="line2d_5">
    <path d="M 124.260059 91.585535 
L 130.903264 91.585535 
" clip-path="url(#pd96d47c8b0)" style="fill: none; stroke: #000000; stroke-linecap: round"/>
   </g>
   <g id="line2d_6">
    <path d="M 124.260059 90.237218 
L 130.903264 90.237218 
" clip-path="url(#pd96d47c8b0)" style="fill: none; stroke: #000000; stroke-linecap: round"/>
   </g>
   <g id="line2d_7">
    <path d="M 87.722433 66.83231 
L 87.722433 53.657433 
" clip-path="url(#pd96d47c8b0)" style="fill: none; stroke: #000000; stroke-linecap: round"/>
   </g>
   <g id="line2d_8">
    <path d="M 84.400831 66.83231 
L 91.044035 66.83231 
" clip-path="url(#pd96d47c8b0)" style="fill: none; stroke: #000000; stroke-linecap: round"/>
   </g>
   <g id="line2d_9">
    <path d="M 84.400831 53.657433 
L 91.044035 53.657433 
" clip-path="url(#pd96d47c8b0)" style="fill: none; stroke: #000000; stroke-linecap: round"/>
   </g>
   <g id="line2d_10">
    <path d="M 154.15448 112.474877 
L 154.15448 112.356401 
" clip-path="url(#pd96d47c8b0)" style="fill: none; stroke: #000000; stroke-linecap: round"/>
   </g>
   <g id="line2d_11">
    <path d="M 150.832878 112.474877 
L 157.476083 112.474877 
" clip-path="url(#pd96d47c8b0)" style="fill: none; stroke: #000000; stroke-linecap: round"/>
   </g>
   <g id="line2d_12">
    <path d="M 150.832878 112.356401 
L 157.476083 112.356401 
" clip-path="url(#pd96d47c8b0)" style="fill: none; stroke: #000000; stroke-linecap: round"/>
   </g>
   <g id="patch_7">
    <path d="M 41.22 190.759213 
L 41.22 10.08 
" style="fill: none; stroke: #262626; stroke-width: 0.5; stroke-linejoin: miter; stroke-linecap: square"/>
   </g>
   <g id="patch_8">
    <path d="M 174.084094 190.759213 
L 174.084094 10.08 
" style="fill: none; stroke: #262626; stroke-width: 0.5; stroke-linejoin: miter; stroke-linecap: square"/>
   </g>
   <g id="patch_9">
    <path d="M 41.22 190.759213 
L 174.084094 190.759213 
" style="fill: none; stroke: #262626; stroke-width: 0.5; stroke-linejoin: miter; stroke-linecap: square"/>
   </g>
   <g id="patch_10">
    <path d="M 41.22 10.08 
L 174.084094 10.08 
" style="fill: none; stroke: #262626; stroke-width: 0.5; stroke-linejoin: miter; stroke-linecap: square"/>
   </g>
   <g id="PathCollection_3">
    <defs>
     <path id="C0_0_abaf4e2a2f" d="M 0 1.5 
C 0.397805 1.5 0.77937 1.341951 1.06066 1.06066 
C 1.341951 0.77937 1.5 0.397805 1.5 -0 
C 1.5 -0.397805 1.341951 -0.77937 1.06066 -1.06066 
C 0.77937 -1.341951 0.397805 -1.5 0 -1.5 
C -0.397805 -1.5 -0.77937 -1.341951 -1.06066 -1.06066 
C -1.341951 -0.77937 -1.5 -0.397805 -1.5 0 
C -1.5 0.397805 -1.341951 0.77937 -1.06066 1.06066 
C -0.77937 1.341951 -0.397805 1.5 0 1.5 
z
"/>
    </defs>
    <g clip-path="url(#pd96d47c8b0)">
     <use xlink:href="#C0_0_abaf4e2a2f" x="68.058462" y="29.718407" style="fill: #66c2a5; fill-opacity: 0.7; stroke: #000000; stroke-opacity: 0.7"/>
    </g>
    <g clip-path="url(#pd96d47c8b0)">
     <use xlink:href="#C0_0_abaf4e2a2f" x="62.36862" y="30.893939" style="fill: #66c2a5; fill-opacity: 0.7; stroke: #000000; stroke-opacity: 0.7"/>
    </g>
    <g clip-path="url(#pd96d47c8b0)">
     <use xlink:href="#C0_0_abaf4e2a2f" x="60.250298" y="30.427367" style="fill: #66c2a5; fill-opacity: 0.7; stroke: #000000; stroke-opacity: 0.7"/>
    </g>
    <g clip-path="url(#pd96d47c8b0)">
     <use xlink:href="#C0_0_abaf4e2a2f" x="58.203517" y="30.897039" style="fill: #66c2a5; fill-opacity: 0.7; stroke: #000000; stroke-opacity: 0.7"/>
    </g>
    <g clip-path="url(#pd96d47c8b0)">
     <use xlink:href="#C0_0_abaf4e2a2f" x="62.860599" y="29.289214" style="fill: #66c2a5; fill-opacity: 0.7; stroke: #000000; stroke-opacity: 0.7"/>
    </g>
   </g>
   <g id="PathCollection_4">
    <defs>
     <path id="C1_0_1cc9c67031" d="M 0 1.5 
C 0.397805 1.5 0.77937 1.341951 1.06066 1.06066 
C 1.341951 0.77937 1.5 0.397805 1.5 -0 
C 1.5 -0.397805 1.341951 -0.77937 1.06066 -1.06066 
C 0.77937 -1.341951 0.397805 -1.5 0 -1.5 
C -0.397805 -1.5 -0.77937 -1.341951 -1.06066 -1.06066 
C -1.341951 -0.77937 -1.5 -0.397805 -1.5 0 
C -1.5 0.397805 -1.341951 0.77937 -1.06066 1.06066 
C -0.77937 1.341951 -0.397805 1.5 0 1.5 
z
"/>
    </defs>
    <g clip-path="url(#pd96d47c8b0)">
     <use xlink:href="#C1_0_1cc9c67031" x="88.434912" y="60.244871" style="fill: #b3b3b3; fill-opacity: 0.7; stroke: #000000; stroke-opacity: 0.7"/>
    </g>
    <g clip-path="url(#pd96d47c8b0)">
     <use xlink:href="#C1_0_1cc9c67031" x="94.24851" y="67.146477" style="fill: #b3b3b3; fill-opacity: 0.7; stroke: #000000; stroke-opacity: 0.7"/>
    </g>
    <g clip-path="url(#pd96d47c8b0)">
     <use xlink:href="#C1_0_1cc9c67031" x="83.02985" y="72.896368" style="fill: #b3b3b3; fill-opacity: 0.7; stroke: #000000; stroke-opacity: 0.7"/>
    </g>
    <g clip-path="url(#pd96d47c8b0)">
     <use xlink:href="#C1_0_1cc9c67031" x="87.291536" y="58.130973" style="fill: #b3b3b3; fill-opacity: 0.7; stroke: #000000; stroke-opacity: 0.7"/>
    </g>
    <g clip-path="url(#pd96d47c8b0)">
     <use xlink:href="#C1_0_1cc9c67031" x="84.688847" y="57.762911" style="fill: #b3b3b3; fill-opacity: 0.7; stroke: #000000; stroke-opacity: 0.7"/>
    </g>
   </g>
   <g id="PathCollection_5">
    <defs>
     <path id="C2_0_afabeb6804" d="M 0 1.5 
C 0.397805 1.5 0.77937 1.341951 1.06066 1.06066 
C 1.341951 0.77937 1.5 0.397805 1.5 -0 
C 1.5 -0.397805 1.341951 -0.77937 1.06066 -1.06066 
C 0.77937 -1.341951 0.397805 -1.5 0 -1.5 
C -0.397805 -1.5 -0.77937 -1.341951 -1.06066 -1.06066 
C -1.341951 -0.77937 -1.5 -0.397805 -1.5 0 
C -1.5 0.397805 -1.341951 0.77937 -1.06066 1.06066 
C -0.77937 1.341951 -0.397805 1.5 0 1.5 
z
"/>
    </defs>
    <g clip-path="url(#pd96d47c8b0)">
     <use xlink:href="#C2_0_afabeb6804" x="120.296955" y="90.911377" style="fill: #66c2a5; fill-opacity: 0.7; stroke: #000000; stroke-opacity: 0.7"/>
    </g>
    <g clip-path="url(#pd96d47c8b0)">
     <use xlink:href="#C2_0_afabeb6804" x="122.798103" y="91.245378" style="fill: #66c2a5; fill-opacity: 0.7; stroke: #000000; stroke-opacity: 0.7"/>
    </g>
    <g clip-path="url(#pd96d47c8b0)">
     <use xlink:href="#C2_0_afabeb6804" x="118.566195" y="89.563885" style="fill: #66c2a5; fill-opacity: 0.7; stroke: #000000; stroke-opacity: 0.7"/>
    </g>
    <g clip-path="url(#pd96d47c8b0)">
     <use xlink:href="#C2_0_afabeb6804" x="125.474968" y="90.716615" style="fill: #66c2a5; fill-opacity: 0.7; stroke: #000000; stroke-opacity: 0.7"/>
    </g>
    <g clip-path="url(#pd96d47c8b0)">
     <use xlink:href="#C2_0_afabeb6804" x="125.023022" y="91.130975" style="fill: #66c2a5; fill-opacity: 0.7; stroke: #000000; stroke-opacity: 0.7"/>
    </g>
   </g>
   <g id="PathCollection_6">
    <defs>
     <path id="C3_0_95175773d2" d="M 0 1.5 
C 0.397805 1.5 0.77937 1.341951 1.06066 1.06066 
C 1.341951 0.77937 1.5 0.397805 1.5 -0 
C 1.5 -0.397805 1.341951 -0.77937 1.06066 -1.06066 
C 0.77937 -1.341951 0.397805 -1.5 0 -1.5 
C -0.397805 -1.5 -0.77937 -1.341951 -1.06066 -1.06066 
C -1.341951 -0.77937 -1.5 -0.397805 -1.5 0 
C -1.5 0.397805 -1.341951 0.77937 -1.06066 1.06066 
C -0.77937 1.341951 -0.397805 1.5 0 1.5 
z
"/>
    </defs>
    <g clip-path="url(#pd96d47c8b0)">
     <use xlink:href="#C3_0_95175773d2" x="155.285146" y="112.415639" style="fill: #b3b3b3; fill-opacity: 0.7; stroke: #000000; stroke-opacity: 0.7"/>
    </g>
    <g clip-path="url(#pd96d47c8b0)">
     <use xlink:href="#C3_0_95175773d2" x="162.076393" y="112.474369" style="fill: #b3b3b3; fill-opacity: 0.7; stroke: #000000; stroke-opacity: 0.7"/>
    </g>
    <g clip-path="url(#pd96d47c8b0)">
     <use xlink:href="#C3_0_95175773d2" x="147.524812" y="112.377159" style="fill: #b3b3b3; fill-opacity: 0.7; stroke: #000000; stroke-opacity: 0.7"/>
    </g>
    <g clip-path="url(#pd96d47c8b0)">
     <use xlink:href="#C3_0_95175773d2" x="152.30514" y="112.321628" style="fill: #b3b3b3; fill-opacity: 0.7; stroke: #000000; stroke-opacity: 0.7"/>
    </g>
    <g clip-path="url(#pd96d47c8b0)">
     <use xlink:href="#C3_0_95175773d2" x="157.190824" y="112.442318" style="fill: #b3b3b3; fill-opacity: 0.7; stroke: #000000; stroke-opacity: 0.7"/>
    </g>
   </g>
   <g id="legend_1">
    <g id="patch_11">
     <path d="M 42.131907 187.259213 
L 169.184094 187.259213 
Q 170.584094 187.259213 170.584094 185.859213 
L 170.584094 166.755775 
Q 170.584094 165.355775 169.184094 165.355775 
L 42.131907 165.355775 
Q 40.731907 165.355775 40.731907 166.755775 
L 40.731907 185.859213 
Q 40.731907 187.259213 42.131907 187.259213 
z
" style="fill: #ffffff; opacity: 0.8; stroke: #cccccc; stroke-linejoin: miter"/>
    </g>
    <g id="PathCollection_7">
     <defs>
      <path id="m5235cb9671" d="M 0 1.5 
C 0.397805 1.5 0.77937 1.341951 1.06066 1.06066 
C 1.341951 0.77937 1.5 0.397805 1.5 0 
C 1.5 -0.397805 1.341951 -0.77937 1.06066 -1.06066 
C 0.77937 -1.341951 0.397805 -1.5 0 -1.5 
C -0.397805 -1.5 -0.77937 -1.341951 -1.06066 -1.06066 
C -1.341951 -0.77937 -1.5 -0.397805 -1.5 0 
C -1.5 0.397805 -1.341951 0.77937 -1.06066 1.06066 
C -0.77937 1.341951 -0.397805 1.5 0 1.5 
z
" style="stroke: #66c2a5"/>
     </defs>
     <g>
      <use xlink:href="#m5235cb9671" x="49.831907" y="171.328744" style="fill: #66c2a5; stroke: #66c2a5"/>
     </g>
    </g>
    <g id="patch_12">
     <path d="M 58.931907 173.166244 
L 71.531907 173.166244 
L 71.531907 168.266244 
L 58.931907 168.266244 
z
" style="fill: #72b6a1; opacity: 0.5; stroke: #000000; stroke-linejoin: miter"/>
    </g>
    <g id="text_14">
     <text style="fill: #262626; font: 7px 'sans-serif'; text-anchor: start" x="77.131907" y="173.166244" transform="rotate(-0, 77.131907, 173.166244)">Clinical Note + NYUTron</text>
    </g>
    <g id="PathCollection_8">
     <defs>
      <path id="md08ae5cf6e" d="M 0 1.5 
C 0.397805 1.5 0.77937 1.341951 1.06066 1.06066 
C 1.341951 0.77937 1.5 0.397805 1.5 0 
C 1.5 -0.397805 1.341951 -0.77937 1.06066 -1.06066 
C 0.77937 -1.341951 0.397805 -1.5 0 -1.5 
C -0.397805 -1.5 -0.77937 -1.341951 -1.06066 -1.06066 
C -1.341951 -0.77937 -1.5 -0.397805 -1.5 0 
C -1.5 0.397805 -1.341951 0.77937 -1.06066 1.06066 
C -0.77937 1.341951 -0.397805 1.5 0 1.5 
z
" style="stroke: #b3b3b3"/>
     </defs>
     <g>
      <use xlink:href="#md08ae5cf6e" x="49.831907" y="181.230463" style="fill: #b3b3b3; stroke: #b3b3b3"/>
     </g>
    </g>
    <g id="patch_13">
     <path d="M 58.931907 183.067963 
L 71.531907 183.067963 
L 71.531907 178.167963 
L 58.931907 178.167963 
z
" style="fill: #b3b3b3; opacity: 0.5; stroke: #000000; stroke-linejoin: miter"/>
    </g>
    <g id="text_15">
     <text style="fill: #262626; font: 7px 'sans-serif'; text-anchor: start" x="77.131907" y="183.067963" transform="rotate(-0, 77.131907, 183.067963)">Structured Features Baseline</text>
    </g>
   </g>
  </g>
 </g>
 <defs>
  <clipPath id="pd96d47c8b0">
   <rect x="41.22" y="10.08" width="132.864094" height="180.679213"/>
  </clipPath>
 </defs>
</svg>
