<?xml version="1.0" encoding="utf-8" standalone="no"?>
<!DOCTYPE svg PUBLIC "-//W3C//DTD SVG 1.1//EN"
  "http://www.w3.org/Graphics/SVG/1.1/DTD/svg11.dtd">
<svg xmlns:xlink="http://www.w3.org/1999/xlink" width="189.327409pt" height="130.043222pt" viewBox="0 0 189.327409 130.043222" xmlns="http://www.w3.org/2000/svg" version="1.1">
 <metadata>
  <rdf:RDF xmlns:dc="http://purl.org/dc/elements/1.1/" xmlns:cc="http://creativecommons.org/ns#" xmlns:rdf="http://www.w3.org/1999/02/22-rdf-syntax-ns#">
   <cc:Work>
    <dc:type rdf:resource="http://purl.org/dc/dcmitype/StillImage"/>
    <dc:date>2023-04-08T00:37:47.242405</dc:date>
    <dc:format>image/svg+xml</dc:format>
    <dc:creator>
     <cc:Agent>
      <dc:title>Matplotlib v3.5.1, https://matplotlib.org/</dc:title>
     </cc:Agent>
    </dc:creator>
   </cc:Work>
  </rdf:RDF>
 </metadata>
 <defs>
  <style type="text/css">*{stroke-linejoin: round; stroke-linecap: butt}</style>
 </defs>
 <g id="figure_1">
  <g id="patch_1">
   <path d="M 0 130.043222 
L 189.327409 130.043222 
L 189.327409 -0 
L 0 -0 
z
" style="fill: #ffffff"/>
  </g>
  <g id="axes_1">
   <g id="patch_2">
    <path d="M 34.499063 98.872441 
L 182.127409 98.872441 
L 182.127409 7.2 
L 34.499063 7.2 
z
" style="fill: #ffffff"/>
   </g>
   <g id="PolyCollection_1">
    <path d="M 41.209442 93.212503 
L 41.209442 94.705512 
L 41.343649 91.600012 
L 41.477857 89.565536 
L 41.612065 88.582582 
L 41.746272 87.905587 
L 41.88048 87.35549 
L 42.014687 86.965441 
L 42.148895 86.567205 
L 42.283103 86.215364 
L 42.41731 85.757243 
L 42.551518 85.400064 
L 42.685725 85.092062 
L 42.819933 84.759903 
L 42.954141 84.410057 
L 43.088348 83.950383 
L 43.222556 83.680724 
L 43.356763 83.483462 
L 43.490971 83.134695 
L 43.625178 82.849987 
L 43.759386 82.655775 
L 43.893594 82.472749 
L 44.027801 82.15779 
L 44.162009 81.741405 
L 44.296216 81.412211 
L 44.430424 80.994046 
L 44.564632 80.698069 
L 44.698839 80.365909 
L 44.833047 80.234944 
L 44.967254 80.047985 
L 45.101462 79.777513 
L 45.23567 79.440608 
L 45.369877 79.163018 
L 45.504085 78.953758 
L 45.638292 78.757309 
L 45.7725 78.451248 
L 45.906707 78.008308 
L 46.040915 77.61136 
L 46.175123 77.378509 
L 46.30933 76.97219 
L 46.443538 76.573955 
L 46.577745 76.323056 
L 46.711953 76.180702 
L 46.846161 76.011911 
L 46.980368 75.755674 
L 47.114576 75.447579 
L 47.248783 75.011366 
L 47.382991 74.728691 
L 47.517199 74.369247 
L 47.651406 74.090132 
L 47.785614 73.874567 
L 47.919821 73.717978 
L 48.054029 73.604095 
L 48.188236 73.346434 
L 48.322444 73.065183 
L 48.456652 72.797422 
L 48.590859 72.518322 
L 48.725067 72.251732 
L 48.859274 71.901023 
L 48.993482 71.535217 
L 49.12769 71.294401 
L 49.261897 71.106799 
L 49.396105 70.851324 
L 49.530312 70.606526 
L 49.66452 70.386895 
L 49.798727 70.269452 
L 49.932935 70.102187 
L 50.067143 70.013215 
L 50.20135 69.87442 
L 50.335558 69.679192 
L 50.469765 69.436682 
L 50.603973 69.121723 
L 50.738181 68.934884 
L 50.872388 68.801427 
L 51.006596 68.536293 
L 51.140803 68.408174 
L 51.275011 68.22108 
L 51.409219 67.995347 
L 51.543426 67.885532 
L 51.677634 67.621668 
L 51.811841 67.380378 
L 51.946049 67.147324 
L 52.080256 66.944775 
L 52.214464 66.752123 
L 52.348672 66.415218 
L 52.482879 66.183384 
L 52.617087 65.988156 
L 52.751294 65.724154 
L 52.885502 65.371967 
L 53.01971 65.097427 
L 53.153917 64.871694 
L 53.288125 64.635793 
L 53.422332 64.450733 
L 53.55654 64.22012 
L 53.690748 64.040754 
L 53.824955 63.895552 
L 53.959163 63.700324 
L 54.09337 63.442867 
L 54.227578 63.254959 
L 54.361785 63.091252 
L 54.495993 62.930392 
L 54.630201 62.7585 
L 54.764408 62.528954 
L 54.898616 62.443542 
L 55.167031 62.341047 
L 55.301239 62.230011 
L 55.435446 61.995127 
L 55.569654 61.845655 
L 55.703861 61.691913 
L 55.838069 61.436387 
L 55.972277 61.196521 
L 56.106484 61.048473 
L 56.240692 60.851211 
L 56.374899 60.649881 
L 56.509107 60.469566 
L 56.643314 60.222819 
L 56.777522 60.084024 
L 56.91173 59.88117 
L 57.045937 59.795757 
L 57.180145 59.642015 
L 57.314352 59.454108 
L 57.44856 59.340225 
L 57.582768 59.098223 
L 57.716975 58.941634 
L 57.851183 58.856221 
L 57.98539 58.804974 
L 58.119598 58.685396 
L 58.253806 58.503895 
L 58.388013 58.315276 
L 58.522221 58.172922 
L 58.656428 58.002097 
L 58.790636 57.916685 
L 58.924843 57.780025 
L 59.059051 57.6092 
L 59.193259 57.410311 
L 59.327466 57.233386 
L 59.461674 57.12662 
L 59.595881 56.896481 
L 59.730089 56.678205 
L 59.864297 56.542969 
L 59.998504 56.355536 
L 60.132712 56.037612 
L 60.266919 55.9522 
L 60.401127 55.713045 
L 60.535335 55.557167 
L 60.669542 55.439725 
L 60.80375 55.354313 
L 60.937957 55.2689 
L 61.072165 55.140782 
L 61.206372 55.012663 
L 61.34058 54.89878 
L 61.474788 54.784897 
L 61.608995 54.638984 
L 61.743203 54.462821 
L 61.87741 54.300893 
L 62.011618 54.233275 
L 62.145826 54.098751 
L 62.280033 53.987715 
L 62.414241 53.902302 
L 62.548448 53.806213 
L 62.682656 53.710124 
L 62.816864 53.603359 
L 63.085279 53.40264 
L 63.219486 53.133591 
L 63.353694 52.92006 
L 63.487901 52.777706 
L 63.622109 52.635352 
L 63.756317 52.535704 
L 63.890524 52.450291 
L 64.024732 52.291668 
L 64.158939 52.194054 
L 64.293147 52.080171 
L 64.427355 51.890366 
L 64.561562 51.596167 
L 64.69577 51.510755 
L 64.829977 51.374095 
L 64.964185 51.254518 
L 65.098392 51.150803 
L 65.2326 50.896853 
L 65.366808 50.624601 
L 65.501015 50.351587 
L 65.635223 50.186863 
L 65.76943 50.058744 
L 65.903638 49.881819 
L 66.037846 49.717095 
L 66.172053 49.631682 
L 66.306261 49.503564 
L 66.440468 49.375445 
L 66.574676 49.332739 
L 66.708884 49.20462 
L 66.843091 49.033796 
L 66.977299 48.862971 
L 67.111506 48.656558 
L 67.245714 48.478615 
L 67.379921 48.246781 
L 67.514129 48.094259 
L 67.648337 47.980376 
L 67.782544 47.897811 
L 67.916752 47.75261 
L 68.185167 47.645844 
L 68.319375 47.496372 
L 68.453582 47.368254 
L 68.58779 47.231594 
L 68.721997 47.021859 
L 68.856205 46.784603 
L 68.990413 46.631572 
L 69.12462 46.357541 
L 69.258828 46.215187 
L 69.393035 46.129774 
L 69.527243 45.98742 
L 69.66145 45.841507 
L 69.795658 45.702712 
L 69.929866 45.606623 
L 70.064073 45.503417 
L 70.198281 45.366401 
L 70.332488 45.190238 
L 70.466696 45.069237 
L 70.600904 44.934001 
L 70.735111 44.848588 
L 70.869319 44.754635 
L 71.003526 44.604553 
L 71.137734 44.492703 
L 71.271942 44.336114 
L 71.406149 44.236466 
L 71.540357 44.165289 
L 71.674564 44.079877 
L 71.808772 43.937523 
L 71.942979 43.738227 
L 72.077187 43.652815 
L 72.211395 43.593026 
L 72.345602 43.410813 
L 72.47981 43.217211 
L 72.614017 43.054928 
L 72.748225 42.969516 
L 72.882433 42.798691 
L 73.01664 42.72548 
L 73.150848 42.576619 
L 73.285055 42.371629 
L 73.419263 42.200804 
L 73.553471 42.115392 
L 73.687678 42.019303 
L 73.821886 41.859154 
L 73.956093 41.830684 
L 74.090301 41.677653 
L 74.224508 41.602917 
L 74.358716 41.517505 
L 74.492924 41.474799 
L 74.627131 41.34668 
L 74.761339 41.261268 
L 74.895546 41.143826 
L 75.029754 41.00503 
L 75.163962 40.893994 
L 75.298169 40.748793 
L 75.432377 40.577968 
L 75.566584 40.492556 
L 75.700792 40.407144 
L 75.835 40.279025 
L 75.969207 40.150906 
L 76.103415 40.065494 
L 76.237622 39.965846 
L 76.37183 39.809257 
L 76.506037 39.715303 
L 76.640245 39.578643 
L 76.774453 39.365112 
L 76.90866 39.21137 
L 77.042868 39.160123 
L 77.177075 39.040545 
L 77.311283 38.955133 
L 77.445491 38.869721 
L 77.579698 38.708386 
L 77.713906 38.528071 
L 77.848113 38.442659 
L 77.982321 38.34657 
L 78.116528 38.239804 
L 78.250736 38.186421 
L 78.384944 38.075385 
L 78.519151 37.921643 
L 78.787566 37.844772 
L 78.921774 37.759359 
L 79.055982 37.588535 
L 79.190189 37.492446 
L 79.324397 37.357921 
L 79.458604 37.204179 
L 79.592812 37.047589 
L 79.72702 36.973565 
L 79.861227 36.819823 
L 79.995435 36.819823 
L 80.129642 36.734411 
L 80.26385 36.648998 
L 80.398057 36.563586 
L 80.532265 36.478173 
L 80.666473 36.418385 
L 80.80068 36.221936 
L 80.934888 36.221936 
L 81.069095 36.136524 
L 81.203303 36.008405 
L 81.337511 35.880287 
L 81.471718 35.794874 
L 81.605926 35.709462 
L 81.740133 35.709462 
L 81.874341 35.624049 
L 82.008549 35.581343 
L 82.142756 35.453225 
L 82.276964 35.342189 
L 82.411171 35.253929 
L 82.545379 35.154281 
L 82.679586 34.990574 
L 82.813794 34.855338 
L 82.948002 34.769926 
L 83.082209 34.684513 
L 83.216417 34.684513 
L 83.350624 34.599101 
L 83.484832 34.481659 
L 83.61904 34.38557 
L 83.753247 34.257451 
L 83.887455 34.172039 
L 84.021662 34.086626 
L 84.15587 33.949967 
L 84.290078 33.793784 
L 84.424285 33.659564 
L 84.558493 33.574152 
L 84.6927 33.474504 
L 84.826908 33.317915 
L 84.961115 33.232502 
L 85.095323 33.232502 
L 85.229531 33.232502 
L 85.363738 33.14709 
L 85.497946 33.118619 
L 85.632153 32.976265 
L 85.766361 32.976265 
L 85.900569 32.890853 
L 86.034776 32.79887 
L 86.168984 32.677322 
L 86.303191 32.549203 
L 86.437399 32.463791 
L 86.571607 32.378378 
L 86.705814 32.207554 
L 86.840022 32.207554 
L 86.974229 32.122141 
L 87.108437 31.951316 
L 87.242644 31.807183 
L 87.376852 31.609667 
L 87.51106 31.495784 
L 87.645267 31.35343 
L 87.779475 31.268017 
L 88.04789 31.174064 
L 88.182098 31.04381 
L 88.316305 30.926368 
L 88.450513 30.830279 
L 88.58472 30.755543 
L 88.718928 30.670131 
L 88.853136 30.584718 
L 88.987343 30.542012 
L 89.121551 30.413893 
L 89.255758 30.328481 
L 89.389966 30.235951 
L 89.524173 30.129185 
L 89.658381 30.029538 
L 89.792589 29.901419 
L 89.926796 29.901419 
L 90.329419 29.790383 
L 90.463627 29.645182 
L 90.597834 29.559769 
L 90.732042 29.388945 
L 90.866249 29.371862 
L 91.000457 29.243744 
L 91.134665 29.082884 
L 91.268872 28.961883 
L 91.40308 28.87647 
L 91.537287 28.87647 
L 91.671495 28.762587 
L 91.93991 28.620233 
L 92.074118 28.620233 
L 92.208325 28.534821 
L 92.342533 28.502791 
L 92.47674 28.378231 
L 92.610948 28.193171 
L 92.745156 28.107759 
L 92.879363 28.022346 
L 93.013571 27.936934 
L 93.147778 27.851521 
L 93.281986 27.766109 
L 93.416193 27.680697 
L 93.550401 27.616637 
L 93.684609 27.499195 
L 93.818816 27.339047 
L 93.953024 27.328371 
L 94.087231 27.253635 
L 94.221439 27.168222 
L 94.489854 27.068575 
L 94.624062 26.997398 
L 94.758269 26.911985 
L 94.892477 26.800949 
L 95.026685 26.655748 
L 95.160892 26.570336 
L 95.2951 26.474247 
L 95.429307 26.385275 
L 95.563515 26.285628 
L 95.697722 26.228686 
L 95.83193 26.137173 
L 95.966138 25.972449 
L 96.100345 25.972449 
L 96.234553 25.887036 
L 96.36876 25.87636 
L 96.502968 25.801624 
L 96.637176 25.801624 
L 96.771383 25.716212 
L 96.905591 25.630799 
L 97.039798 25.545387 
L 97.174006 25.459974 
L 97.308214 25.459974 
L 97.442421 25.374562 
L 97.576629 25.278473 
L 97.710836 25.175266 
L 97.845044 24.997324 
L 97.979251 24.851411 
L 98.113459 24.776675 
L 98.247667 24.691263 
L 98.381874 24.691263 
L 98.516082 24.554603 
L 98.650289 24.435026 
L 98.918705 24.435026 
L 99.052912 24.349613 
L 99.18712 24.264201 
L 99.321327 24.178788 
L 99.455535 24.093376 
L 99.589743 24.007964 
L 99.72395 23.922551 
L 99.858158 23.837139 
L 99.992365 23.837139 
L 100.126573 23.837139 
L 100.26078 23.74105 
L 100.394988 23.580902 
L 100.529196 23.580902 
L 100.797611 23.481254 
L 100.931818 23.410077 
L 101.066026 23.324665 
L 101.200234 23.239252 
L 101.334441 23.239252 
L 101.468649 23.225017 
L 101.602856 23.111134 
L 101.737064 22.983015 
L 101.871272 22.897603 
L 102.139687 22.81219 
L 102.273894 22.726778 
L 102.408102 22.641365 
L 102.542309 22.555953 
L 102.676517 22.555953 
L 102.810725 22.470541 
L 102.944932 22.470541 
L 103.07914 22.374452 
L 103.213347 22.267686 
L 103.347555 22.128891 
L 103.481763 22.103267 
L 103.61597 21.958066 
L 103.750178 21.872654 
L 103.884385 21.872654 
L 104.018593 21.787241 
L 104.152801 21.701829 
L 104.287008 21.616417 
L 104.421216 21.531004 
L 104.689631 21.502533 
L 104.823838 21.413562 
L 104.958046 21.274767 
L 105.092254 21.274767 
L 105.226461 21.274767 
L 105.360669 21.160884 
L 105.494876 21.075471 
L 105.629084 20.990059 
L 105.763292 20.933117 
L 105.897499 20.847705 
L 106.031707 20.847705 
L 106.165914 20.719586 
L 106.300122 20.67688 
L 106.568537 20.591468 
L 106.702745 20.506055 
L 106.836952 20.420643 
L 106.97116 20.335231 
L 107.105367 20.249818 
L 107.239575 20.164406 
L 107.373783 20.164406 
L 107.50799 20.078993 
L 107.776405 20.078993 
L 107.910613 19.993581 
L 108.044821 19.993581 
L 108.179028 19.908169 
L 108.313236 19.908169 
L 108.447443 19.822756 
L 108.581651 19.822756 
L 108.850066 19.822756 
L 108.984274 19.737344 
L 109.118481 19.737344 
L 109.386896 19.651932 
L 109.521104 19.566519 
L 109.655312 19.566519 
L 109.923727 19.481107 
L 110.057934 19.481107 
L 110.192142 19.395694 
L 110.32635 19.395694 
L 110.460557 19.395694 
L 110.594765 19.310282 
L 110.728972 19.22487 
L 110.86318 19.22487 
L 110.997387 19.139457 
L 111.131595 19.054045 
L 111.40001 19.054045 
L 111.534218 19.039809 
L 111.668425 18.968632 
L 111.802633 18.88322 
L 111.936841 18.88322 
L 112.071048 18.789266 
L 112.205256 18.712395 
L 112.339463 18.683924 
L 112.607879 18.54157 
L 112.742086 18.456158 
L 112.876294 18.456158 
L 113.010501 18.370746 
L 113.144709 18.370746 
L 113.278916 18.370746 
L 113.413124 18.285333 
L 113.547332 18.199921 
L 113.815747 18.199921 
L 113.949954 18.114508 
L 114.21837 18.114508 
L 114.352577 18.029096 
L 114.620992 17.943684 
L 114.889408 17.943684 
L 115.023615 17.858271 
L 115.157823 17.858271 
L 115.29203 17.858271 
L 115.426238 17.762182 
L 115.560445 17.687446 
L 115.694653 17.602034 
L 115.828861 17.602034 
L 116.231483 17.516622 
L 116.365691 17.516622 
L 116.499899 17.431209 
L 116.634106 17.431209 
L 116.768314 17.431209 
L 117.036729 17.345797 
L 117.170937 17.345797 
L 117.305144 17.260384 
L 117.439352 17.260384 
L 117.573559 17.260384 
L 117.707767 17.260384 
L 118.11039 17.174972 
L 118.244597 17.174972 
L 118.378805 17.08956 
L 118.513012 17.075324 
L 118.781428 17.004147 
L 118.915635 16.918735 
L 119.18405 16.918735 
L 119.318258 16.833322 
L 119.586673 16.833322 
L 119.720881 16.74791 
L 119.855088 16.74791 
L 119.989296 16.74791 
L 120.123503 16.662498 
L 120.257711 16.662498 
L 120.391919 16.662498 
L 120.526126 16.577085 
L 120.660334 16.577085 
L 120.794541 16.577085 
L 120.928749 16.491673 
L 121.197164 16.463202 
L 121.465579 16.40626 
L 121.733994 16.392025 
L 122.00241 16.320848 
L 122.136617 16.235436 
L 122.270825 16.235436 
L 122.405032 16.235436 
L 122.53924 16.150023 
L 122.807655 16.150023 
L 122.941863 16.064611 
L 123.07607 16.053934 
L 123.210278 15.893786 
L 123.344486 15.893786 
L 123.478693 15.808374 
L 123.612901 15.808374 
L 124.015523 15.808374 
L 124.149731 15.808374 
L 124.283939 15.722961 
L 124.552354 15.722961 
L 124.820769 15.637549 
L 124.954977 15.637549 
L 125.089184 15.552137 
L 125.491807 15.552137 
L 125.760222 15.523666 
L 126.162845 15.466724 
L 126.297052 15.381312 
L 126.43126 15.295899 
L 126.565468 15.210487 
L 126.833883 15.210487 
L 127.370713 15.125075 
L 127.504921 15.125075 
L 127.639128 15.125075 
L 127.773336 15.039662 
L 127.907544 15.039662 
L 128.041751 14.95425 
L 128.175959 14.95425 
L 128.578581 14.868837 
L 129.115412 14.868837 
L 129.249619 14.783425 
L 129.78645 14.783425 
L 129.920657 14.698013 
L 130.054865 14.698013 
L 130.32328 14.698013 
L 130.457488 14.6126 
L 130.86011 14.527188 
L 130.994318 14.441775 
L 131.128526 14.441775 
L 131.396941 14.356363 
L 131.531148 14.356363 
L 131.665356 14.356363 
L 131.799564 14.356363 
L 132.470602 14.270951 
L 132.604809 14.270951 
L 133.141639 14.185538 
L 133.410055 14.185538 
L 134.081093 14.100126 
L 134.349508 14.100126 
L 134.483715 14.100126 
L 134.752131 14.014713 
L 135.020546 14.014713 
L 135.154753 13.929301 
L 136.362622 13.929301 
L 137.033659 13.843889 
L 137.167867 13.843889 
L 137.436282 13.843889 
L 138.10732 13.843889 
L 138.241528 13.758476 
L 139.180981 13.758476 
L 139.315188 13.758476 
L 139.449396 13.673064 
L 139.583604 13.673064 
L 139.852019 13.587651 
L 140.120434 13.587651 
L 140.254642 13.587651 
L 140.657264 13.502239 
L 140.92568 13.502239 
L 141.865133 13.502239 
L 142.267755 13.416827 
L 142.670378 13.416827 
L 142.804586 13.331414 
L 142.938793 13.331414 
L 143.207209 13.331414 
L 144.549284 13.246002 
L 145.220322 13.246002 
L 145.622945 13.246002 
L 145.89136 13.246002 
L 146.696606 13.160589 
L 146.830813 13.160589 
L 147.233436 13.075177 
L 147.367644 13.075177 
L 147.770267 13.075177 
L 148.038682 12.989765 
L 148.172889 12.989765 
L 148.307097 12.989765 
L 149.24655 12.989765 
L 149.78338 12.904352 
L 149.917588 12.904352 
L 150.186003 12.904352 
L 150.454418 12.890117 
L 150.722833 12.81894 
L 151.259664 12.733527 
L 151.393871 12.733527 
L 151.662287 12.733527 
L 152.064909 12.648115 
L 152.199117 12.648115 
L 152.333324 12.648115 
L 152.60174 12.648115 
L 153.406985 12.562703 
L 153.943816 12.562703 
L 154.346438 12.562703 
L 154.749061 12.47729 
L 155.017476 12.47729 
L 155.554307 12.47729 
L 155.956929 12.391878 
L 156.225345 12.391878 
L 156.359552 12.306465 
L 156.896382 12.306465 
L 157.164798 12.306465 
L 157.299005 12.306465 
L 157.299005 12.306465 
L 157.299005 12.306465 
L 157.164798 12.306465 
L 156.896382 12.306465 
L 156.359552 12.306465 
L 156.225345 12.306465 
L 155.956929 12.391878 
L 155.554307 12.391878 
L 155.017476 12.47729 
L 154.749061 12.47729 
L 154.346438 12.47729 
L 153.943816 12.562703 
L 153.406985 12.562703 
L 152.60174 12.562703 
L 152.333324 12.648115 
L 152.199117 12.648115 
L 152.064909 12.648115 
L 151.662287 12.648115 
L 151.393871 12.733527 
L 151.259664 12.733527 
L 150.722833 12.733527 
L 150.454418 12.81894 
L 150.186003 12.904352 
L 149.917588 12.904352 
L 149.78338 12.904352 
L 149.24655 12.904352 
L 148.307097 12.989765 
L 148.172889 12.989765 
L 148.038682 12.989765 
L 147.770267 12.989765 
L 147.367644 13.075177 
L 147.233436 13.075177 
L 146.830813 13.075177 
L 146.696606 13.160589 
L 145.89136 13.160589 
L 145.622945 13.246002 
L 145.220322 13.246002 
L 144.549284 13.246002 
L 143.207209 13.246002 
L 142.938793 13.331414 
L 142.804586 13.331414 
L 142.670378 13.331414 
L 142.267755 13.416827 
L 141.865133 13.416827 
L 140.92568 13.502239 
L 140.657264 13.502239 
L 140.254642 13.502239 
L 140.120434 13.587651 
L 139.852019 13.587651 
L 139.583604 13.587651 
L 139.449396 13.673064 
L 139.315188 13.673064 
L 139.180981 13.758476 
L 138.241528 13.758476 
L 138.10732 13.758476 
L 137.436282 13.843889 
L 137.167867 13.843889 
L 137.033659 13.843889 
L 136.362622 13.843889 
L 135.154753 13.929301 
L 135.020546 13.929301 
L 134.752131 14.014713 
L 134.483715 14.014713 
L 134.349508 14.100126 
L 134.081093 14.100126 
L 133.410055 14.100126 
L 133.141639 14.185538 
L 132.604809 14.185538 
L 132.470602 14.270951 
L 131.799564 14.270951 
L 131.665356 14.356363 
L 131.531148 14.356363 
L 131.396941 14.356363 
L 131.128526 14.356363 
L 130.994318 14.441775 
L 130.86011 14.441775 
L 130.457488 14.527188 
L 130.32328 14.6126 
L 130.054865 14.698013 
L 129.920657 14.698013 
L 129.78645 14.698013 
L 129.249619 14.783425 
L 129.115412 14.783425 
L 128.578581 14.868837 
L 128.175959 14.868837 
L 128.041751 14.95425 
L 127.907544 14.95425 
L 127.773336 15.039662 
L 127.639128 15.039662 
L 127.504921 15.125075 
L 127.370713 15.125075 
L 126.833883 15.13931 
L 126.565468 15.210487 
L 126.43126 15.224722 
L 126.297052 15.32437 
L 126.162845 15.381312 
L 125.760222 15.466724 
L 125.491807 15.552137 
L 125.089184 15.552137 
L 124.954977 15.552137 
L 124.820769 15.637549 
L 124.552354 15.637549 
L 124.283939 15.722961 
L 124.149731 15.722961 
L 124.015523 15.808374 
L 123.612901 15.808374 
L 123.478693 15.808374 
L 123.344486 15.808374 
L 123.210278 15.893786 
L 123.07607 15.925816 
L 122.941863 16.064611 
L 122.807655 16.064611 
L 122.53924 16.150023 
L 122.405032 16.150023 
L 122.270825 16.235436 
L 122.136617 16.235436 
L 122.00241 16.235436 
L 121.733994 16.320848 
L 121.465579 16.40626 
L 121.197164 16.40626 
L 120.928749 16.491673 
L 120.794541 16.491673 
L 120.660334 16.577085 
L 120.526126 16.577085 
L 120.391919 16.577085 
L 120.257711 16.662498 
L 120.123503 16.662498 
L 119.989296 16.662498 
L 119.855088 16.74791 
L 119.720881 16.74791 
L 119.586673 16.74791 
L 119.318258 16.833322 
L 119.18405 16.833322 
L 118.915635 16.918735 
L 118.781428 16.918735 
L 118.513012 17.004147 
L 118.378805 17.08956 
L 118.244597 17.08956 
L 118.11039 17.174972 
L 117.707767 17.174972 
L 117.573559 17.260384 
L 117.439352 17.260384 
L 117.305144 17.260384 
L 117.170937 17.260384 
L 117.036729 17.345797 
L 116.768314 17.345797 
L 116.634106 17.431209 
L 116.499899 17.431209 
L 116.365691 17.431209 
L 116.231483 17.516622 
L 115.828861 17.516622 
L 115.694653 17.602034 
L 115.560445 17.602034 
L 115.426238 17.687446 
L 115.29203 17.772859 
L 115.157823 17.858271 
L 115.023615 17.858271 
L 114.889408 17.858271 
L 114.620992 17.943684 
L 114.352577 17.943684 
L 114.21837 18.029096 
L 113.949954 18.114508 
L 113.815747 18.114508 
L 113.547332 18.199921 
L 113.413124 18.199921 
L 113.278916 18.285333 
L 113.144709 18.370746 
L 113.010501 18.370746 
L 112.876294 18.370746 
L 112.742086 18.456158 
L 112.607879 18.477511 
L 112.339463 18.555806 
L 112.205256 18.712395 
L 112.071048 18.720936 
L 111.936841 18.797808 
L 111.802633 18.88322 
L 111.668425 18.88322 
L 111.534218 18.968632 
L 111.40001 19.054045 
L 111.131595 19.054045 
L 110.997387 19.054045 
L 110.86318 19.139457 
L 110.728972 19.22487 
L 110.594765 19.22487 
L 110.460557 19.310282 
L 110.32635 19.395694 
L 110.192142 19.395694 
L 110.057934 19.395694 
L 109.923727 19.481107 
L 109.655312 19.481107 
L 109.521104 19.566519 
L 109.386896 19.566519 
L 109.118481 19.651932 
L 108.984274 19.737344 
L 108.850066 19.737344 
L 108.581651 19.822756 
L 108.447443 19.822756 
L 108.313236 19.822756 
L 108.179028 19.908169 
L 108.044821 19.908169 
L 107.910613 19.993581 
L 107.776405 19.993581 
L 107.50799 20.078993 
L 107.373783 20.078993 
L 107.239575 20.164406 
L 107.105367 20.178641 
L 106.97116 20.249818 
L 106.836952 20.335231 
L 106.702745 20.420643 
L 106.568537 20.520291 
L 106.300122 20.591468 
L 106.165914 20.67688 
L 106.031707 20.762293 
L 105.897499 20.847705 
L 105.763292 20.847705 
L 105.629084 20.933117 
L 105.494876 21.01853 
L 105.360669 21.103942 
L 105.226461 21.189355 
L 105.092254 21.274767 
L 104.958046 21.274767 
L 104.823838 21.306797 
L 104.689631 21.445592 
L 104.421216 21.531004 
L 104.287008 21.531004 
L 104.152801 21.627093 
L 104.018593 21.733859 
L 103.884385 21.787241 
L 103.750178 21.872654 
L 103.61597 21.872654 
L 103.481763 22.000772 
L 103.347555 22.128891 
L 103.213347 22.128891 
L 103.07914 22.299716 
L 102.944932 22.385128 
L 102.810725 22.470541 
L 102.676517 22.470541 
L 102.542309 22.555953 
L 102.408102 22.570188 
L 102.273894 22.669836 
L 102.139687 22.741013 
L 101.871272 22.840661 
L 101.737064 22.911838 
L 101.602856 23.015045 
L 101.468649 23.15384 
L 101.334441 23.239252 
L 101.200234 23.239252 
L 101.066026 23.239252 
L 100.931818 23.324665 
L 100.797611 23.410077 
L 100.529196 23.495489 
L 100.394988 23.580902 
L 100.26078 23.623608 
L 100.126573 23.751727 
L 99.992365 23.837139 
L 99.858158 23.837139 
L 99.72395 23.837139 
L 99.589743 23.933228 
L 99.455535 24.039993 
L 99.321327 24.093376 
L 99.18712 24.178788 
L 99.052912 24.264201 
L 98.918705 24.349613 
L 98.650289 24.435026 
L 98.516082 24.452108 
L 98.381874 24.60585 
L 98.247667 24.691263 
L 98.113459 24.691263 
L 97.979251 24.776675 
L 97.845044 24.919029 
L 97.710836 25.061383 
L 97.576629 25.203737 
L 97.442421 25.28915 
L 97.308214 25.374562 
L 97.174006 25.459974 
L 97.039798 25.488445 
L 96.905591 25.545387 
L 96.771383 25.65927 
L 96.637176 25.716212 
L 96.502968 25.801624 
L 96.36876 25.801624 
L 96.234553 25.887036 
L 96.100345 25.887036 
L 95.966138 25.972449 
L 95.83193 26.05176 
L 95.697722 26.143274 
L 95.563515 26.228686 
L 95.429307 26.314098 
L 95.2951 26.399511 
L 95.160892 26.484923 
L 95.026685 26.570336 
L 94.892477 26.664289 
L 94.758269 26.826573 
L 94.624062 26.911985 
L 94.489854 26.997398 
L 94.221439 27.08281 
L 94.087231 27.168222 
L 93.953024 27.253635 
L 93.818816 27.339047 
L 93.684609 27.381753 
L 93.550401 27.538343 
L 93.416193 27.680697 
L 93.281986 27.680697 
L 93.147778 27.766109 
L 93.013571 27.851521 
L 92.879363 27.936934 
L 92.745156 28.033023 
L 92.610948 28.118435 
L 92.47674 28.264348 
L 92.342533 28.449408 
L 92.208325 28.534821 
L 92.074118 28.534821 
L 91.93991 28.620233 
L 91.671495 28.677175 
L 91.537287 28.791058 
L 91.40308 28.87647 
L 91.268872 28.87647 
L 91.134665 28.976118 
L 91.000457 29.14979 
L 90.866249 29.303532 
L 90.732042 29.388945 
L 90.597834 29.442327 
L 90.463627 29.559769 
L 90.329419 29.662264 
L 89.926796 29.816007 
L 89.792589 29.901419 
L 89.658381 29.918501 
L 89.524173 30.072244 
L 89.389966 30.157656 
L 89.255758 30.271539 
L 89.121551 30.360511 
L 88.987343 30.445923 
L 88.853136 30.584718 
L 88.718928 30.584718 
L 88.58472 30.670131 
L 88.450513 30.755543 
L 88.316305 30.840955 
L 88.182098 30.926368 
L 88.04789 31.105734 
L 87.779475 31.214635 
L 87.645267 31.268017 
L 87.51106 31.381901 
L 87.376852 31.524255 
L 87.242644 31.641697 
L 87.108437 31.865904 
L 86.974229 32.019646 
L 86.840022 32.122141 
L 86.705814 32.207554 
L 86.571607 32.267342 
L 86.437399 32.378378 
L 86.303191 32.474467 
L 86.168984 32.581233 
L 86.034776 32.720028 
L 85.900569 32.80544 
L 85.766361 32.890853 
L 85.632153 32.976265 
L 85.497946 33.004736 
L 85.363738 33.14709 
L 85.229531 33.14709 
L 85.095323 33.232502 
L 84.961115 33.232502 
L 84.826908 33.264532 
L 84.6927 33.389092 
L 84.558493 33.531446 
L 84.424285 33.574152 
L 84.290078 33.683968 
L 84.15587 33.847472 
L 84.021662 34.001214 
L 83.887455 34.100862 
L 83.753247 34.182715 
L 83.61904 34.289481 
L 83.484832 34.428276 
L 83.350624 34.513688 
L 83.216417 34.599101 
L 83.082209 34.684513 
L 82.948002 34.684513 
L 82.813794 34.769926 
L 82.679586 34.890926 
L 82.545379 35.058192 
L 82.411171 35.196988 
L 82.276964 35.2824 
L 82.142756 35.367812 
L 82.008549 35.477628 
L 81.874341 35.624049 
L 81.740133 35.624049 
L 81.605926 35.709462 
L 81.471718 35.709462 
L 81.337511 35.794874 
L 81.203303 35.90469 
L 81.069095 36.051111 
L 80.934888 36.136524 
L 80.80068 36.221936 
L 80.666473 36.256101 
L 80.532265 36.478173 
L 80.398057 36.492409 
L 80.26385 36.563586 
L 80.129642 36.648998 
L 79.995435 36.734411 
L 79.861227 36.819823 
L 79.72702 36.862529 
L 79.592812 36.990648 
L 79.458604 37.086737 
L 79.324397 37.246885 
L 79.190189 37.41771 
L 79.055982 37.528746 
L 78.921774 37.641917 
L 78.787566 37.759359 
L 78.519151 37.844772 
L 78.384944 37.981432 
L 78.250736 38.101009 
L 78.116528 38.186421 
L 77.982321 38.271834 
L 77.848113 38.371482 
L 77.713906 38.442659 
L 77.579698 38.570777 
L 77.445491 38.784308 
L 77.311283 38.880397 
L 77.177075 38.969368 
L 77.042868 39.049087 
L 76.90866 39.21137 
L 76.774453 39.254076 
L 76.640245 39.441984 
L 76.506037 39.646973 
L 76.37183 39.73808 
L 76.237622 39.866198 
L 76.103415 39.980082 
L 75.969207 40.093965 
L 75.835 40.150906 
L 75.700792 40.321731 
L 75.566584 40.421379 
L 75.432377 40.492556 
L 75.298169 40.637757 
L 75.163962 40.800041 
L 75.029754 40.951648 
L 74.895546 41.047737 
L 74.761339 41.175855 
L 74.627131 41.261268 
L 74.492924 41.37871 
L 74.358716 41.517505 
L 74.224508 41.517505 
L 74.090301 41.602917 
L 73.956093 41.7168 
L 73.821886 41.859154 
L 73.687678 41.891184 
L 73.553471 42.029979 
L 73.419263 42.126068 
L 73.285055 42.24351 
L 73.150848 42.465582 
L 73.01664 42.646169 
L 72.882433 42.798691 
L 72.748225 42.858479 
L 72.614017 43.001545 
L 72.47981 43.114717 
L 72.345602 43.29693 
L 72.211395 43.490531 
L 72.077187 43.652815 
L 71.942979 43.681285 
L 71.808772 43.830757 
L 71.674564 43.994464 
L 71.540357 44.079877 
L 71.406149 44.165289 
L 71.271942 44.250701 
L 71.137734 44.350349 
L 71.003526 44.51914 
L 70.869319 44.686305 
L 70.735111 44.763176 
L 70.600904 44.859265 
L 70.466696 44.990942 
L 70.332488 45.119061 
L 70.198281 45.270312 
L 70.064073 45.446475 
L 69.929866 45.531887 
L 69.795658 45.6173 
L 69.66145 45.724065 
L 69.527243 45.880655 
L 69.393035 46.044362 
L 69.258828 46.129774 
L 69.12462 46.250775 
L 68.990413 46.476762 
L 68.856205 46.727661 
L 68.721997 46.860525 
L 68.58779 47.13764 
L 68.453582 47.282842 
L 68.319375 47.421637 
L 68.185167 47.553314 
L 67.916752 47.667197 
L 67.782544 47.803857 
L 67.648337 47.923434 
L 67.514129 48.008847 
L 67.379921 48.161369 
L 67.245714 48.362698 
L 67.111506 48.55691 
L 66.977299 48.734852 
L 66.843091 48.934148 
L 66.708884 49.076502 
L 66.574676 49.247327 
L 66.440468 49.375445 
L 66.306261 49.418151 
L 66.172053 49.54627 
L 66.037846 49.660153 
L 65.903638 49.796406 
L 65.76943 49.930626 
L 65.635223 50.084368 
L 65.501015 50.23567 
L 65.366808 50.485806 
L 65.2326 50.779411 
L 65.098392 51.028785 
L 64.964185 51.254518 
L 64.829977 51.305765 
L 64.69577 51.453813 
L 64.561562 51.532108 
L 64.427355 51.724286 
L 64.293147 52.023229 
L 64.158939 52.108642 
L 64.024732 52.200155 
L 63.890524 52.364879 
L 63.756317 52.450291 
L 63.622109 52.542822 
L 63.487901 52.706529 
L 63.353694 52.816345 
L 63.219486 52.991237 
L 63.085279 53.295874 
L 62.816864 53.517946 
L 62.682656 53.646065 
L 62.548448 53.731477 
L 62.414241 53.845361 
L 62.280033 53.902302 
L 62.145826 53.987715 
L 62.011618 54.158539 
L 61.87741 54.243952 
L 61.743203 54.356056 
L 61.608995 54.532219 
L 61.474788 54.699485 
L 61.34058 54.841839 
L 61.206372 54.927251 
L 61.072165 55.044693 
L 60.937957 55.183488 
L 60.80375 55.278391 
L 60.669542 55.354313 
L 60.535335 55.439725 
L 60.401127 55.61055 
L 60.266919 55.836283 
L 60.132712 56.037612 
L 59.998504 56.170476 
L 59.864297 56.464674 
L 59.730089 56.560763 
L 59.595881 56.758872 
L 59.461674 57.062561 
L 59.327466 57.176444 
L 59.193259 57.306596 
L 59.059051 57.515246 
L 58.924843 57.67753 
L 58.790636 57.831272 
L 58.656428 57.916685 
L 58.522221 58.044803 
L 58.388013 58.201393 
L 58.253806 58.375776 
L 58.119598 58.565819 
L 57.98539 58.736644 
L 57.851183 58.856221 
L 57.716975 58.856221 
L 57.582768 58.998575 
L 57.44856 59.155164 
L 57.314352 59.368695 
L 57.180145 59.479732 
L 57.045937 59.710345 
L 56.91173 59.795757 
L 56.777522 59.9132 
L 56.643314 60.148084 
L 56.509107 60.298742 
L 56.374899 60.564469 
L 56.240692 60.741395 
L 56.106484 60.934589 
L 55.972277 61.076943 
L 55.838069 61.326063 
L 55.703861 61.555253 
L 55.569654 61.760243 
L 55.435446 61.902597 
L 55.301239 62.08481 
L 55.167031 62.272717 
L 54.898616 62.358129 
L 54.764408 62.460624 
L 54.630201 62.641058 
L 54.495993 62.836439 
L 54.361785 62.991605 
L 54.227578 63.126841 
L 54.09337 63.323289 
L 53.959163 63.560004 
L 53.824955 63.81014 
L 53.690748 63.912635 
L 53.55654 64.109083 
L 53.422332 64.311938 
L 53.288125 64.529028 
L 53.153917 64.743576 
L 53.01971 64.963207 
L 52.885502 65.207243 
L 52.751294 65.580506 
L 52.617087 65.87834 
L 52.482879 66.073569 
L 52.348672 66.276423 
L 52.214464 66.576553 
L 52.080256 66.850821 
L 51.946049 67.019206 
L 51.811841 67.243718 
L 51.677634 67.477535 
L 51.543426 67.781816 
L 51.409219 67.909935 
L 51.275011 68.074659 
L 51.140803 68.26582 
L 51.006596 68.443763 
L 50.872388 68.662632 
L 50.738181 68.849471 
L 50.603973 68.998943 
L 50.469765 69.28721 
L 50.335558 69.551073 
L 50.20135 69.739184 
L 50.067143 69.959833 
L 49.932935 70.045245 
L 49.798727 70.130657 
L 49.66452 70.301482 
L 49.530312 70.472307 
L 49.396105 70.744559 
L 49.261897 70.97258 
L 49.12769 71.166283 
L 48.993482 71.397608 
L 48.859274 71.753493 
L 48.725067 72.095142 
L 48.590859 72.401851 
L 48.456652 72.674049 
L 48.322444 72.949266 
L 48.188236 73.201233 
L 48.054029 73.483094 
L 47.919821 73.658189 
L 47.785614 73.782037 
L 47.651406 73.968114 
L 47.517199 74.258923 
L 47.382991 74.557867 
L 47.248783 74.907651 
L 47.114576 75.186004 
L 46.980368 75.609252 
L 46.846161 75.883792 
L 46.711953 76.081054 
L 46.577745 76.237644 
L 46.443538 76.424483 
L 46.30933 76.809907 
L 46.175123 77.232088 
L 46.040915 77.497476 
L 45.906707 77.801347 
L 45.7725 78.316012 
L 45.638292 78.613176 
L 45.504085 78.859804 
L 45.369877 79.024223 
L 45.23567 79.30592 
L 45.101462 79.658885 
L 44.967254 79.905632 
L 44.833047 80.14099 
L 44.698839 80.294732 
L 44.564632 80.494028 
L 44.430424 80.86059 
L 44.296216 81.237828 
L 44.162009 81.618625 
L 44.027801 81.885538 
L 43.893594 82.301924 
L 43.759386 82.539858 
L 43.625178 82.750339 
L 43.490971 82.906928 
L 43.356763 83.326872 
L 43.222556 83.558706 
L 43.088348 83.809452 
L 42.954141 84.204291 
L 42.819933 84.617549 
L 42.685725 84.940218 
L 42.551518 85.256416 
L 42.41731 85.62136 
L 42.283103 86.021245 
L 42.148895 86.407057 
L 42.014687 86.764721 
L 41.88048 87.222627 
L 41.746272 87.661552 
L 41.612065 88.297874 
L 41.477857 89.15271 
L 41.343649 90.589299 
L 41.209442 93.212503 
z
" clip-path="url(#p2c4ac9ec2f)" style="fill: #800080; fill-opacity: 0.2; stroke: #800080; stroke-opacity: 0.2"/>
    <path d="M 157.970043 12.221053 
L 157.970043 12.306465 
L 158.104251 12.221053 
L 158.641081 12.221053 
L 158.909496 12.221053 
L 159.848949 12.135641 
L 160.38578 12.135641 
L 160.92261 12.135641 
L 161.056818 12.135641 
L 161.593648 12.050228 
L 161.996271 12.050228 
L 162.130478 12.050228 
L 162.667309 12.050228 
L 163.338347 11.964816 
L 163.875177 11.964816 
L 164.143592 11.879404 
L 164.2778 11.879404 
L 164.81463 11.793991 
L 165.083045 11.793991 
L 165.485668 11.793991 
L 165.619876 11.793991 
L 166.156706 11.708579 
L 167.230367 11.708579 
L 167.230367 11.708579 
L 167.230367 11.708579 
L 166.156706 11.708579 
L 165.619876 11.708579 
L 165.485668 11.793991 
L 165.083045 11.793991 
L 164.81463 11.793991 
L 164.2778 11.793991 
L 164.143592 11.879404 
L 163.875177 11.879404 
L 163.338347 11.964816 
L 162.667309 11.964816 
L 162.130478 12.050228 
L 161.996271 12.050228 
L 161.593648 12.050228 
L 161.056818 12.050228 
L 160.92261 12.135641 
L 160.38578 12.135641 
L 159.848949 12.135641 
L 158.909496 12.135641 
L 158.641081 12.221053 
L 158.104251 12.221053 
L 157.970043 12.221053 
z
" clip-path="url(#p2c4ac9ec2f)" style="fill: #800080; fill-opacity: 0.2; stroke: #800080; stroke-opacity: 0.2"/>
    <path d="M 167.632989 11.708579 
L 167.632989 11.708579 
L 167.767197 11.708579 
L 167.901405 11.623166 
L 168.035612 11.623166 
L 168.16982 11.623166 
L 168.16982 11.623166 
L 168.16982 11.623166 
L 168.035612 11.623166 
L 167.901405 11.623166 
L 167.767197 11.623166 
L 167.632989 11.708579 
z
" clip-path="url(#p2c4ac9ec2f)" style="fill: #800080; fill-opacity: 0.2; stroke: #800080; stroke-opacity: 0.2"/>
    <path d="M 168.70665 11.623166 
L 168.70665 11.623166 
L 168.70665 11.623166 
L 168.70665 11.623166 
z
" clip-path="url(#p2c4ac9ec2f)" style="fill: #800080; fill-opacity: 0.2; stroke: #800080; stroke-opacity: 0.2"/>
    <path d="M 168.975065 11.623166 
L 168.975065 11.623166 
L 169.109273 11.623166 
L 169.243481 11.623166 
L 169.377688 11.623166 
L 169.511896 11.623166 
L 169.646103 11.623166 
L 169.780311 11.537754 
L 169.914518 11.537754 
L 170.048726 11.537754 
L 170.182934 11.537754 
L 170.451349 11.537754 
L 170.585556 11.537754 
L 170.719764 11.537754 
L 170.853972 11.537754 
L 171.122387 11.537754 
L 171.256594 11.537754 
L 171.390802 11.452342 
L 171.52501 11.452342 
L 171.52501 11.452342 
L 171.52501 11.452342 
L 171.390802 11.452342 
L 171.256594 11.452342 
L 171.122387 11.537754 
L 170.853972 11.537754 
L 170.719764 11.537754 
L 170.585556 11.537754 
L 170.451349 11.537754 
L 170.182934 11.537754 
L 170.048726 11.537754 
L 169.914518 11.537754 
L 169.780311 11.537754 
L 169.646103 11.537754 
L 169.511896 11.623166 
L 169.377688 11.623166 
L 169.243481 11.623166 
L 169.109273 11.623166 
L 168.975065 11.623166 
z
" clip-path="url(#p2c4ac9ec2f)" style="fill: #800080; fill-opacity: 0.2; stroke: #800080; stroke-opacity: 0.2"/>
    <path d="M 171.793425 11.452342 
L 171.793425 11.452342 
L 171.927632 11.452342 
L 172.196047 11.452342 
L 172.330255 11.366929 
L 172.464463 11.366929 
L 172.59867 11.366929 
L 172.732878 11.366929 
L 172.867085 11.366929 
L 173.001293 11.366929 
L 173.135501 11.366929 
L 173.269708 11.366929 
L 173.403916 11.366929 
L 173.538123 11.366929 
L 173.672331 11.366929 
L 173.806539 11.366929 
L 173.940746 11.366929 
L 174.209161 11.366929 
L 174.343369 11.366929 
L 174.477576 11.366929 
L 174.880199 11.366929 
L 175.014407 11.366929 
L 175.014407 11.366929 
L 175.014407 11.366929 
L 174.880199 11.366929 
L 174.477576 11.366929 
L 174.343369 11.366929 
L 174.209161 11.366929 
L 173.940746 11.366929 
L 173.806539 11.366929 
L 173.672331 11.366929 
L 173.538123 11.366929 
L 173.403916 11.366929 
L 173.269708 11.366929 
L 173.135501 11.366929 
L 173.001293 11.366929 
L 172.867085 11.366929 
L 172.732878 11.366929 
L 172.59867 11.366929 
L 172.464463 11.366929 
L 172.330255 11.366929 
L 172.196047 11.366929 
L 171.927632 11.452342 
L 171.793425 11.452342 
z
" clip-path="url(#p2c4ac9ec2f)" style="fill: #800080; fill-opacity: 0.2; stroke: #800080; stroke-opacity: 0.2"/>
   </g>
   <g id="matplotlib.axis_1">
    <g id="xtick_1">
     <g id="line2d_1">
      <defs>
       <path id="m847a66399a" d="M 0 0 
L 0 3.5 
" style="stroke: #000000; stroke-width: 0.8"/>
      </defs>
      <g>
       <use xlink:href="#m847a66399a" x="41.209442" y="98.872441" style="stroke: #000000; stroke-width: 0.8"/>
      </g>
     </g>
     <g id="text_1">
      <text style="font: 7px 'sans-serif'; text-anchor: middle" x="41.209442" y="110.88291" transform="rotate(-0, 41.209442, 110.88291)">0.0</text>
     </g>
    </g>
    <g id="xtick_2">
     <g id="line2d_2">
      <g>
       <use xlink:href="#m847a66399a" x="68.050959" y="98.872441" style="stroke: #000000; stroke-width: 0.8"/>
      </g>
     </g>
     <g id="text_2">
      <text style="font: 7px 'sans-serif'; text-anchor: middle" x="68.050959" y="110.88291" transform="rotate(-0, 68.050959, 110.88291)">0.2</text>
     </g>
    </g>
    <g id="xtick_3">
     <g id="line2d_3">
      <g>
       <use xlink:href="#m847a66399a" x="94.892477" y="98.872441" style="stroke: #000000; stroke-width: 0.8"/>
      </g>
     </g>
     <g id="text_3">
      <text style="font: 7px 'sans-serif'; text-anchor: middle" x="94.892477" y="110.88291" transform="rotate(-0, 94.892477, 110.88291)">0.4</text>
     </g>
    </g>
    <g id="xtick_4">
     <g id="line2d_4">
      <g>
       <use xlink:href="#m847a66399a" x="121.733994" y="98.872441" style="stroke: #000000; stroke-width: 0.8"/>
      </g>
     </g>
     <g id="text_4">
      <text style="font: 7px 'sans-serif'; text-anchor: middle" x="121.733994" y="110.88291" transform="rotate(-0, 121.733994, 110.88291)">0.6</text>
     </g>
    </g>
    <g id="xtick_5">
     <g id="line2d_5">
      <g>
       <use xlink:href="#m847a66399a" x="148.575512" y="98.872441" style="stroke: #000000; stroke-width: 0.8"/>
      </g>
     </g>
     <g id="text_5">
      <text style="font: 7px 'sans-serif'; text-anchor: middle" x="148.575512" y="110.88291" transform="rotate(-0, 148.575512, 110.88291)">0.8</text>
     </g>
    </g>
    <g id="xtick_6">
     <g id="line2d_6">
      <g>
       <use xlink:href="#m847a66399a" x="175.41703" y="98.872441" style="stroke: #000000; stroke-width: 0.8"/>
      </g>
     </g>
     <g id="text_6">
      <text style="font: 7px 'sans-serif'; text-anchor: middle" x="175.41703" y="110.88291" transform="rotate(-0, 175.41703, 110.88291)">1.0</text>
     </g>
    </g>
    <g id="text_7">
     <text style="font: 7px 'sans-serif'; text-anchor: middle" x="108.313236" y="121.369941" transform="rotate(-0, 108.313236, 121.369941)">False Positive Rate (fpr)</text>
    </g>
   </g>
   <g id="matplotlib.axis_2">
    <g id="ytick_1">
     <g id="line2d_7">
      <defs>
       <path id="mb8a39d46b6" d="M 0 0 
L -3.5 0 
" style="stroke: #000000; stroke-width: 0.8"/>
      </defs>
      <g>
       <use xlink:href="#mb8a39d46b6" x="34.499063" y="96.779325" style="stroke: #000000; stroke-width: 0.8"/>
      </g>
     </g>
     <g id="text_8">
      <text style="font: 7px 'sans-serif'; text-anchor: end" x="27.499063" y="99.284559" transform="rotate(-0, 27.499063, 99.284559)">0.0</text>
     </g>
    </g>
    <g id="ytick_2">
     <g id="line2d_8">
      <g>
       <use xlink:href="#mb8a39d46b6" x="34.499063" y="79.696846" style="stroke: #000000; stroke-width: 0.8"/>
      </g>
     </g>
     <g id="text_9">
      <text style="font: 7px 'sans-serif'; text-anchor: end" x="27.499063" y="82.20208" transform="rotate(-0, 27.499063, 82.20208)">0.2</text>
     </g>
    </g>
    <g id="ytick_3">
     <g id="line2d_9">
      <g>
       <use xlink:href="#mb8a39d46b6" x="34.499063" y="62.614367" style="stroke: #000000; stroke-width: 0.8"/>
      </g>
     </g>
     <g id="text_10">
      <text style="font: 7px 'sans-serif'; text-anchor: end" x="27.499063" y="65.119601" transform="rotate(-0, 27.499063, 65.119601)">0.4</text>
     </g>
    </g>
    <g id="ytick_4">
     <g id="line2d_10">
      <g>
       <use xlink:href="#mb8a39d46b6" x="34.499063" y="45.531887" style="stroke: #000000; stroke-width: 0.8"/>
      </g>
     </g>
     <g id="text_11">
      <text style="font: 7px 'sans-serif'; text-anchor: end" x="27.499063" y="48.037122" transform="rotate(-0, 27.499063, 48.037122)">0.6</text>
     </g>
    </g>
    <g id="ytick_5">
     <g id="line2d_11">
      <g>
       <use xlink:href="#mb8a39d46b6" x="34.499063" y="28.449408" style="stroke: #000000; stroke-width: 0.8"/>
      </g>
     </g>
     <g id="text_12">
      <text style="font: 7px 'sans-serif'; text-anchor: end" x="27.499063" y="30.954643" transform="rotate(-0, 27.499063, 30.954643)">0.8</text>
     </g>
    </g>
    <g id="ytick_6">
     <g id="line2d_12">
      <g>
       <use xlink:href="#mb8a39d46b6" x="34.499063" y="11.366929" style="stroke: #000000; stroke-width: 0.8"/>
      </g>
     </g>
     <g id="text_13">
      <text style="font: 7px 'sans-serif'; text-anchor: end" x="27.499063" y="13.872164" transform="rotate(-0, 27.499063, 13.872164)">1.0</text>
     </g>
    </g>
    <g id="text_14">
     <text style="font: 7px 'sans-serif'; text-anchor: middle" x="12.295781" y="53.03622" transform="rotate(-90, 12.295781, 53.03622)">True Positive Rate (tpr)</text>
    </g>
   </g>
   <g id="line2d_13">
    <path d="M 41.209442 93.875303 
L 41.477857 89.316417 
L 41.88048 87.289059 
L 42.685725 85.011395 
L 43.759386 82.588665 
L 43.893594 82.398013 
L 44.698839 80.308968 
L 44.967254 79.976809 
L 45.906707 77.903185 
L 46.711953 76.137996 
L 46.980368 75.682463 
L 47.651406 74.029123 
L 48.590859 72.460086 
L 49.798727 70.194717 
L 50.469765 69.372622 
L 50.738181 68.892178 
L 51.543426 67.836724 
L 52.080256 66.902069 
L 54.495993 62.887686 
L 54.898616 62.400836 
L 55.301239 62.144598 
L 56.91173 59.84914 
L 57.180145 59.548062 
L 59.461674 57.098149 
L 59.864297 56.500263 
L 60.535335 55.503785 
L 62.280033 53.923655 
L 62.548448 53.763507 
L 63.085279 53.351392 
L 63.487901 52.720764 
L 65.098392 51.089794 
L 65.76943 49.994685 
L 66.440468 49.375445 
L 66.843091 48.991089 
L 67.916752 47.731257 
L 68.319375 47.464343 
L 68.721997 46.941192 
L 69.527243 45.930479 
L 70.600904 44.901971 
L 71.003526 44.555746 
L 71.942979 43.723992 
L 72.211395 43.533237 
L 72.882433 42.798691 
L 73.150848 42.525371 
L 73.419263 42.168774 
L 73.956093 41.773742 
L 74.224508 41.560211 
L 74.492924 41.432092 
L 76.103415 40.044141 
L 78.519151 37.870396 
L 78.921774 37.716653 
L 79.72702 36.922318 
L 80.398057 36.54935 
L 81.069095 36.072465 
L 81.605926 35.709462 
L 82.411171 35.211223 
L 85.363738 33.14709 
L 87.108437 31.90861 
L 87.645267 31.332077 
L 89.255758 30.314246 
L 89.926796 29.858713 
L 90.463627 29.602476 
L 91.000457 29.201037 
L 91.268872 28.94053 
L 92.47674 28.328407 
L 92.879363 27.97964 
L 93.818816 27.339047 
L 94.758269 26.869279 
L 95.563515 26.242921 
L 97.442421 25.331856 
L 97.845044 24.961735 
L 98.113459 24.712616 
L 98.381874 24.627204 
L 98.650289 24.435026 
L 99.052912 24.306907 
L 99.992365 23.837139 
L 103.481763 22.060561 
L 103.750178 21.872654 
L 104.287008 21.595064 
L 107.50799 20.078993 
L 108.044821 19.972228 
L 108.581651 19.822756 
L 109.655312 19.545166 
L 110.86318 19.182163 
L 111.131595 19.054045 
L 111.668425 18.947279 
L 113.010501 18.370746 
L 113.413124 18.26398 
L 113.949954 18.114508 
L 115.694653 17.602034 
L 115.828861 17.537975 
L 116.768314 17.409856 
L 121.197164 16.420496 
L 122.00241 16.278142 
L 123.612901 15.808374 
L 124.283939 15.722961 
L 125.089184 15.552137 
L 125.760222 15.48096 
L 126.43126 15.281664 
L 126.565468 15.210487 
L 127.773336 15.039662 
L 128.175959 14.932897 
L 134.081093 14.100126 
L 134.752131 14.014713 
L 135.154753 13.929301 
L 138.10732 13.801182 
L 138.241528 13.758476 
L 139.449396 13.673064 
L 139.852019 13.587651 
L 140.92568 13.502239 
L 147.367644 13.075177 
L 149.917588 12.904352 
L 150.454418 12.833175 
L 151.393871 12.733527 
L 152.60174 12.605409 
L 163.875177 11.943463 
L 164.81463 11.793991 
L 167.767197 11.687226 
L 168.035612 11.623166 
L 171.122387 11.537754 
L 172.330255 11.366929 
L 175.41703 11.366929 
L 175.41703 11.366929 
" clip-path="url(#p2c4ac9ec2f)" style="fill: none; stroke: #800080; stroke-linecap: square"/>
   </g>
   <g id="line2d_14"/>
   <g id="patch_3">
    <path d="M 34.499063 98.872441 
L 34.499063 7.2 
" style="fill: none; stroke: #000000; stroke-width: 0.5; stroke-linejoin: miter; stroke-linecap: square"/>
   </g>
   <g id="patch_4">
    <path d="M 182.127409 98.872441 
L 182.127409 7.2 
" style="fill: none; stroke: #000000; stroke-width: 0.5; stroke-linejoin: miter; stroke-linecap: square"/>
   </g>
   <g id="patch_5">
    <path d="M 34.499063 98.872441 
L 182.127409 98.872441 
" style="fill: none; stroke: #000000; stroke-width: 0.5; stroke-linejoin: miter; stroke-linecap: square"/>
   </g>
   <g id="patch_6">
    <path d="M 34.499063 7.2 
L 182.127409 7.2 
" style="fill: none; stroke: #000000; stroke-width: 0.5; stroke-linejoin: miter; stroke-linecap: square"/>
   </g>
   <g id="legend_1">
    <g id="patch_7">
     <path d="M 119.033346 95.372441 
L 177.227409 95.372441 
Q 178.627409 95.372441 178.627409 93.972441 
L 178.627409 84.770722 
Q 178.627409 83.370722 177.227409 83.370722 
L 119.033346 83.370722 
Q 117.633346 83.370722 117.633346 84.770722 
L 117.633346 93.972441 
Q 117.633346 95.372441 119.033346 95.372441 
z
" style="fill: #ffffff; opacity: 0.8; stroke: #cccccc; stroke-linejoin: miter"/>
    </g>
    <g id="line2d_15">
     <path d="M 120.433346 88.731191 
L 127.433346 88.731191 
L 134.433346 88.731191 
" style="fill: none; stroke: #800080; stroke-linecap: square"/>
    </g>
    <g id="text_15">
     <text style="font: 7px 'sans-serif'; text-anchor: start" x="140.033346" y="91.181191" transform="rotate(-0, 140.033346, 91.181191)">prospective</text>
    </g>
   </g>
  </g>
 </g>
 <defs>
  <clipPath id="p2c4ac9ec2f">
   <rect x="34.499063" y="7.2" width="147.628346" height="91.672441"/>
  </clipPath>
 </defs>
</svg>
